<svg id="Layer_1" data-name="Layer 1" xmlns="http://www.w3.org/2000/svg" viewBox="0 0 74.88 74.88"><defs><style>.cls-1{fill:#303030;}.cls-2{fill:#fefefe;}.cls-3{fill:#303030;}.cls-4{fill:#303030;}.cls-5{fill:#303030;}.cls-6{fill:#303030;}.cls-7{fill:#303030;}</style></defs><path class="cls-1" d="M1037.88,1037.88H963v-2.72q0-35.55,0-71.11c0-.84.15-1,1-1q36.47,0,72.91,0h.94Z" transform="translate(-963 -963)"/><path class="cls-2" d="M987,980.59c-2.63-.19-3.34.7-2.65,3.21a4.09,4.09,0,0,1-1.52.09c-1.37,0-1.79.48-1.8,1.87,0,.45,0,1-.71,1-.54,0-1.29.3-1.42-.62,0-.37-.1-.57-.54-.58-.78,0-.8-.68-.78-1.2s.45-.94,1.11-1c1.52,0,1.88-.42,1.87-2a4.26,4.26,0,0,1,.46-2.29,3.05,3.05,0,0,1,2.83-1.59,3.18,3.18,0,0,1,2.78,1.54C986.91,979.54,986.64,980.07,987,980.59Z" transform="translate(-963 -963)"/><path class="cls-2" d="M1020.41,1013.41a3.16,3.16,0,0,1,3.09,2.44,3.29,3.29,0,0,1-1.23,3.42c-2.3,1.4-4.64,2.74-7,4.06-.87.49-1,.38-1.72-1-.4-.75.12-1,.6-1.27,2.09-1.25,4.16-2.52,6.27-3.74.48-.28.87-.59.55-1.08s-.75-.24-1.18,0c-.81.39-1.06.24-1.56-.77s-.41-1.06.44-1.48C1019.25,1013.69,1019.78,1013.28,1020.41,1013.41Z" transform="translate(-963 -963)"/><path class="cls-2" d="M985,1021.27c0,.17-.06.25-.24.3-2.29.63-4.58,1.3-6.89,1.88-.66.17-.5-.46-.42-.8.3-1.22.64-2.42,1-3.63q.34-1.31.66-2.61c.11-.48.3-.56.84-.49a5.85,5.85,0,0,1,3.12,1.27A5.33,5.33,0,0,1,985,1021.27Z" transform="translate(-963 -963)"/><path class="cls-2" d="M1018.63,981.5h-3.35a1.18,1.18,0,0,1-1.25-.67c-.3-.6.05-1,.36-1.37a5.7,5.7,0,0,1,6.36-1.38,6.2,6.2,0,0,1,2.11,1.44,1.28,1.28,0,0,1,.31,1.41c-.2.5-.68.59-1.2.58C1020.86,981.48,1019.74,981.5,1018.63,981.5Z" transform="translate(-963 -963)"/><path class="cls-2" d="M1018.56,983.9c-1.24,0-2.48,0-3.72,0-.8,0-1.24-.38-1.18-1s.59-.93,1.27-.93c2.51,0,5,0,7.54,0,.73,0,1.31.45,1.21,1a1.1,1.1,0,0,1-1.17.93C1021.19,983.91,1019.88,983.9,1018.56,983.9Z" transform="translate(-963 -963)"/><path class="cls-2" d="M985.65,1021.22a6,6,0,0,0-5.52-5.88c-.38,0-.68-.13-.52-.54s.16-1.21.86-1.1a7.7,7.7,0,0,1,5.18,2.91,6.53,6.53,0,0,1,1.39,3.19c.12,1,.13,1.09-.84,1.3C986,1021.14,985.86,1021.31,985.65,1021.22Z" transform="translate(-963 -963)"/><path class="cls-2" d="M1018.56,984.57c1.27,0,2.55,0,3.82,0,.36,0,.83-.15.87.51a1.07,1.07,0,0,1-.74,1.2,2,2,0,0,1-.6,0h-6.45a1.58,1.58,0,0,1-.92-.15,1.25,1.25,0,0,1-.59-1.29c.06-.45.58-.27.91-.28C1016.09,984.55,1017.32,984.56,1018.56,984.57Z" transform="translate(-963 -963)"/><path class="cls-3" d="M1015.1,1021.21c.56-.25,1-.26,1.34.17.1.12.52.12.27.41s-.39.41-.7.11S1015.46,1021.48,1015.1,1021.21Z" transform="translate(-963 -963)"/><path class="cls-1" d="M1020.2,1015c.16.32-.21.37-.28.35-.46-.08-.32-.56-.49-.84a.28.28,0,0,1,.28-.4C1020.42,1014.15,1020,1014.78,1020.2,1015Z" transform="translate(-963 -963)"/><path class="cls-4" d="M1022.21,1014.58c0,.23.09.35.06.45a.87.87,0,0,1-.78.74.33.33,0,0,1-.26-.21c-.09-.44.38-.5.57-.75A2.09,2.09,0,0,1,1022.21,1014.58Z" transform="translate(-963 -963)"/><path class="cls-1" d="M1019.18,1020.33c-1,.53-1.31-.23-1.91-.24C1018.11,1019.22,1018.41,1020.16,1019.18,1020.33Z" transform="translate(-963 -963)"/><path class="cls-5" d="M1019.68,1018.62c.13-.22.34-.18.52-.16a1.1,1.1,0,0,1,.77.51.19.19,0,0,1-.11.28c-.35.17-.57-.11-.82-.26S1019.71,1018.94,1019.68,1018.62Z" transform="translate(-963 -963)"/><path class="cls-3" d="M1021.63,1017.12c.46-.68.83.06,1.22-.07,0,.06,0,.15,0,.18s-.2.31-.31.3A1.71,1.71,0,0,1,1021.63,1017.12Z" transform="translate(-963 -963)"/><path class="cls-6" d="M981.25,1018.24c0,.37-.17.46-.51.45s-.66-.21-.62-.55a.72.72,0,0,1,.66-.61C981.16,1017.54,981.27,1017.87,981.25,1018.24Z" transform="translate(-963 -963)"/><path class="cls-6" d="M982.7,1019.65c.43,0,.71.22.64.57a.69.69,0,0,1-.67.58c-.38,0-.45-.36-.46-.71S982.43,1019.63,982.7,1019.65Z" transform="translate(-963 -963)"/><path class="cls-7" d="M980.44,1021a.56.56,0,0,1-.64.54c-.37,0-.47-.16-.47-.5s.18-.64.52-.65S980.35,1020.74,980.44,1021Z" transform="translate(-963 -963)"/></svg>